HIERARCHY
ROOT RootJoint
{
    OFFSET   0.000000   0.000000   0.000000
    CHANNELS 6 Xposition Yposition Zposition Xrotation Yrotation Zrotation
    JOINT lHip
    {
        OFFSET   0.100000  -0.051395   0.000000
        CHANNELS 3 Xrotation Yrotation Zrotation
        JOINT lKnee
        {
            OFFSET   0.000000  -0.410000   0.000000
            CHANNELS 3 Xrotation Yrotation Zrotation
            JOINT lAnkle
            {
                OFFSET   0.000000  -0.390000   0.000000
                CHANNELS 3 Xrotation Yrotation Zrotation
                JOINT lToeJoint
                {
                    OFFSET   0.000000  -0.050000   0.130000
                    CHANNELS 3 Xrotation Yrotation Zrotation
                    End Site
                    {
                        OFFSET   0.010000   0.002000   0.060000
                    }
                }
            }
        }
    }
    JOINT pelvis_lowerback
    {
        OFFSET   0.000000   0.093605   0.000000
        CHANNELS 3 Xrotation Yrotation Zrotation
        JOINT lowerback_torso
        {
            OFFSET   0.000000   0.100000   0.000000
            CHANNELS 3 Xrotation Yrotation Zrotation
            JOINT lTorso_Clavicle
            {
                OFFSET   0.001000   0.157500   0.000000
                CHANNELS 3 Xrotation Yrotation Zrotation
                JOINT lShoulder
                {
                    OFFSET   0.117647   0.000000   0.000000
                    CHANNELS 3 Xrotation Yrotation Zrotation
                    JOINT lElbow
                    {
                        OFFSET   0.245000   0.000000   0.000000
                        CHANNELS 3 Xrotation Yrotation Zrotation
                        JOINT lWrist
                        {
                            OFFSET   0.240000   0.000000   0.000000
                            CHANNELS 3 Xrotation Yrotation Zrotation
                            End Site
                            {
                                OFFSET   0.116353  -0.002500   0.000000
                            }
                        }
                    }
                }
            }
            JOINT rTorso_Clavicle
            {
                OFFSET  -0.001000   0.157500   0.000000
                CHANNELS 3 Xrotation Yrotation Zrotation
                JOINT rShoulder
                {
                    OFFSET  -0.117647   0.000000   0.000000
                    CHANNELS 3 Xrotation Yrotation Zrotation
                    JOINT rElbow
                    {
                        OFFSET  -0.245000   0.000000   0.000000
                        CHANNELS 3 Xrotation Yrotation Zrotation
                        JOINT rWrist
                        {
                            OFFSET  -0.240000   0.000000   0.000000
                            CHANNELS 3 Xrotation Yrotation Zrotation
                            End Site
                            {
                                OFFSET  -0.116353  -0.002500   0.000000
                            }
                        }
                    }
                }
            }
            JOINT torso_head
            {
                OFFSET   0.000000   0.282350   0.000000
                CHANNELS 3 Xrotation Yrotation Zrotation
                End Site
                {
                    OFFSET   0.000000   0.192650   0.000000
                }
            }
        }
    }
    JOINT rHip
    {
        OFFSET  -0.100000  -0.051395   0.000000
        CHANNELS 3 Xrotation Yrotation Zrotation
        JOINT rKnee
        {
            OFFSET   0.000000  -0.410000   0.000000
            CHANNELS 3 Xrotation Yrotation Zrotation
            JOINT rAnkle
            {
                OFFSET   0.000000  -0.390000   0.000000
                CHANNELS 3 Xrotation Yrotation Zrotation
                JOINT rToeJoint
                {
                    OFFSET   0.000000  -0.050000   0.130000
                    CHANNELS 3 Xrotation Yrotation Zrotation
                    End Site
                    {
                        OFFSET  -0.010000   0.002000   0.060000
                    }
                }
            }
        }
    }
}
MOTION
Frames: 9
Frame Time:   0.016667
-0.002716   0.854414   0.31516   2.006935   7.603252   -0.802874   11.213505   -3.28856   -1.596542   13.518703   -1.158091   -4.217138   -17.75451   -3.217202   9.230936   -7.952364   0.208497   -1.531212   2.217825   -0.983141   -1.135836   2.067397   -6.31677   2.081537   2.016713   -0.537759   -19.34616   -5.132245   -37.577324   -50.195239   0.193041   -24.742301   4.438562   0.441357   2.546409   4.857061   1.950287   -5.810863   21.095772   23.710847   29.998555   53.237253   0.413307   10.414202   1.949587   3.572673   -9.484153   6.918315   1.45262   -0.035888   0.107232   -27.723847   -1.65576   2.428184   -2.966452   -5.511687   1.441249   2.238232   -3.184381   -0.89429   -0.012413   -0.007451   0.022346   
-0.004608   0.852522   0.335973   2.013318   7.825209   -1.812984   11.711489   -2.357778   0.059599   15.195214   -1.861854   -4.390214   -17.194344   -3.6146   9.241087   -9.401028   0.260793   -1.565611   2.645886   -1.022749   0.130421   1.454009   -6.63338   1.86777   1.926408   -0.152899   -19.544077   -3.94526   -37.142157   -49.965363   0.198301   -24.675121   4.311854   0.91352   2.437146   4.847456   2.067187   -5.520297   21.180145   23.795337   30.804546   52.864346   0.413259   10.115003   1.950213   3.10048   -9.779128   7.017652   1.447624   -0.006601   0.067129   -27.595387   -2.728874   3.496719   -1.674343   -5.529977   1.831065   6.67506   -3.333325   -4.019119   -0.012413   -0.007451   0.022346   
-0.0065   0.852522   0.358679   1.996287   8.047782   -2.856741   11.997711   -1.156006   1.806872   17.211537   -2.700412   -4.538798   -16.443608   -4.081038   9.21988   -10.98116   0.300231   -1.540192   3.070429   -1.077903   1.397599   0.883119   -6.936886   1.722776   1.840115   0.246211   -19.787297   -2.653726   -36.723402   -49.695086   0.20587   -24.547008   4.205431   1.310022   2.359272   4.82509   2.180843   -5.220219   21.243425   23.831719   31.600727   52.459077   0.421616   9.811133   1.970082   2.721467   -10.081041   7.033379   1.432717   0.027466   0.012072   -27.62656   -3.599526   4.593738   0.143699   -5.594677   2.177386   10.589679   -3.689824   -6.625506   -0.012413   -0.007452   0.027312   
-0.010285   0.852522   0.379492   1.844157   8.279056   -4.035754   11.478538   1.069714   3.958675   20.591485   -4.041984   -4.603012   -14.967997   -4.822494   9.055249   -13.094077   0.291925   -1.258658   3.493667   -1.207965   2.677863   0.472664   -7.176342   1.863289   1.756734   0.673564   -20.182059   -0.956101   -36.395571   -49.269517   0.199793   -24.185904   4.144717   1.390191   2.386404   4.738653   2.282094   -4.877821   21.218531   23.659044   32.385901   51.950713   0.428199   9.472884   2.079935   2.699189   -10.42791   6.716704   1.398011   0.070941   -0.087777   -28.353559   -3.66826   5.777077   4.052135   -5.861655   2.339703   12.455179   -4.027043   -7.236321   -0.012412   -0.012418   0.027312   
-0.012177   0.852522   0.404089   1.644064   8.329425   -5.018681   10.491244   3.538119   5.92216   24.51805   -5.486987   -4.35687   -12.815822   -5.536287   8.771315   -15.432877   0.180218   -0.719773   3.807116   -1.316245   3.699098   0.234699   -7.289441   2.08261   1.681825   1.105935   -20.546636   0.764534   -36.060562   -48.919942   0.196461   -23.69299   4.093684   1.508601   2.474058   4.610878   2.371735   -4.462814   21.119922   23.3927   33.187233   51.501429   0.435229   9.134418   2.129965   2.552572   -10.77508   6.477896   1.373314   0.12457   -0.172831   -28.930048   -3.690001   6.798993   7.940392   -6.145873   2.64295   13.552432   -4.296167   -7.731085   -0.012412   -0.012418   0.027312   
-0.014069   0.854414   0.426795   1.326166   7.910265   -5.517427   8.45844   6.641985   7.412836   29.851421   -7.143938   -3.401011   -8.982305   -6.193055   8.198908   -18.32991   -0.192331   0.459415   3.834366   -1.392771   4.064981   0.411401   -7.096165   2.501033   1.597813   1.53698   -20.820104   2.550054   -35.7398   -48.74607   0.185467   -22.881404   4.058746   1.718327   2.712473   4.374406   2.425809   -3.860075   20.852714   22.868987   34.034729   51.214282   0.431976   8.805157   2.056263   2.100195   -11.130137   6.443141   1.378497   0.193305   -0.238227   -29.132812   -3.572379   7.397129   11.785624   -6.477542   3.257125   12.74432   -4.350554   -7.969767   -0.012412   -0.012418   0.027312   
-0.015961   0.858198   0.451392   0.954462   7.373341   -5.799247   6.199034   9.288365   8.568989   35.397243   -8.439394   -2.092977   -4.455017   -6.5915   7.347746   -20.804495   -0.796274   2.067978   3.777017   -1.410634   4.189118   0.712387   -6.848986   2.88113   1.509785   1.920181   -20.981386   4.219247   -35.281239   -48.77097   0.172873   -22.004969   3.972793   2.171894   3.051258   4.029709   2.481725   -3.252932   20.580609   22.304474   34.91362   50.941435   0.420764   8.550307   1.933198   1.611179   -11.46714   6.406654   1.398578   0.257392   -0.273808   -28.927543   -3.55676   7.789972   15.114827   -6.533261   3.926232   11.521596   -4.224433   -8.249936   -0.012413   -0.007452   0.027312   
-0.017853   0.863874   0.47599   0.441129   6.552679   -5.396803   3.753789   10.050033   8.149311   41.092705   -8.463596   -0.212121   2.177862   -5.980032   5.330431   -21.325181   -2.014378   5.17467   3.485488   -1.244881   3.603398   1.354473   -6.503103   3.039494   1.383809   2.112291   -20.739506   5.452183   -34.329355   -49.467518   0.167169   -20.997347   3.695762   3.585228   3.718853   3.266839   2.549072   -2.683912   20.370567   21.680683   35.921842   50.661403   0.405224   8.598583   1.665294   1.099154   -11.730644   6.288928   1.473004   0.297768   -0.209934   -27.215528   -4.011712   7.520224   16.39893   -5.625201   4.591822   9.425188   -3.452808   -8.795102   -0.007448   -0.00745   0.01738   
-0.019745   0.869551   0.500587   -0.035361   5.792279   -4.954677   1.169265   10.573249   7.690703   46.576368   -8.176989   1.479161   9.307674   -5.497936   3.303878   -19.771813   -2.712583   7.568509   3.189184   -1.043805   2.938195   1.981431   -6.185895   3.198766   1.258112   2.308659   -20.507536   6.713371   -33.467243   -50.080087   0.168325   -20.011627   3.426438   4.933672   4.376485   2.375779   2.630107   -2.172593   20.217804   21.007323   36.843182   50.341572   0.393509   8.76656   1.396806   0.618572   -11.911638   6.09136   1.542392   0.32837   -0.140997   -25.433169   -4.308517   7.294807   17.359441   -4.817708   5.06338   7.480329   -2.762525   -9.205955   -0.007448   -0.00745   0.012414   
